<?xml version="1.0" encoding="UTF-8"?>
<svg version="1.1" xmlns="http://www.w3.org/2000/svg" width="192" height="192">
<path d="M0 0 C3.92366458 3.33794551 7.60325147 6.89506743 11.21289062 10.56738281 C11.9734375 11.32921875 12.73398438 12.09105469 13.51757812 12.87597656 C30.85301698 31.256938 37.76361699 56.06277631 37.43164062 80.82519531 C36.58342435 106.87603777 24.44289216 130.37553656 5.89648438 148.22753906 C-14.87130125 166.33511343 -40.46038804 174.33133606 -67.78710938 172.56738281 C-91.21219713 170.37419731 -111.35239803 160.19181666 -127.78710938 143.56738281 C-128.98787109 142.38208984 -128.98787109 142.38208984 -130.21289062 141.17285156 C-147.55902354 123.10770796 -155.36416158 98.70893746 -155.13867188 73.99902344 C-154.42444028 48.18748715 -144.0143943 25.58665308 -125.78710938 7.56738281 C-124.99691406 6.766875 -124.20671875 5.96636719 -123.39257812 5.14160156 C-90.79509084 -26.1584733 -35.1970222 -28.2153178 0 0 Z " fill="#232122" transform="translate(154.787109375,19.4326171875)"/>
<path d="M0 0 C0.99 0.66 1.98 1.32 3 2 C5.11280345 2.63292383 5.11280345 2.63292383 7 3 C7 3.33 7 3.66 7 4 C5.02 4.66 3.04 5.32 1 6 C2.98 6 4.96 6 7 6 C7 6.66 7 7.32 7 8 C8.60397277 8.16852247 10.2081869 8.33474886 11.8125 8.5 C13.15248047 8.63921875 13.15248047 8.63921875 14.51953125 8.78125 C17.08305099 9.04392401 17.08305099 9.04392401 20 9 C19.67 9.99 19.34 10.98 19 12 C18.34 12 17.68 12 17 12 C16.67 18.27 16.34 24.54 16 31 C17.98 31.33 19.96 31.66 22 32 C21.67 33.65 21.34 35.3 21 37 C22.65 37.33 24.3 37.66 26 38 C25.67 39.65 25.34 41.3 25 43 C25.99 43.33 26.98 43.66 28 44 C27.34 44.66 26.68 45.32 26 46 C28.64 46 31.28 46 34 46 C33.34 46.66 32.68 47.32 32 48 C32.99 48 33.98 48 35 48 C35.33 42.72 35.66 37.44 36 32 C36.33 32 36.66 32 37 32 C37 58.73 37 85.46 37 113 C42.61 113 48.22 113 54 113 C54.55571343 103.6918 55.08199355 94.44913792 55 85.125 C54.95362833 78.40709175 55.08932099 71.71226649 55.375 65 C55.4059375 64.15195801 55.436875 63.30391602 55.46875 62.43017578 C56.26346341 45.52595936 56.26346341 45.52595936 61 40 C66.15247707 35.3277286 71.13784412 34.14416082 78.0234375 34.44921875 C84.19116458 35.59049108 88.40540851 38.82555706 92.0625 43.8125 C93.53506887 48.81923416 94.15592397 53.30284406 92.05078125 58.21484375 C88.2780558 64.60586446 83.76906694 68.25714487 76.69140625 70.47265625 C71.50469217 71.48892098 66.25854668 71.21944476 61 71 C59.85922343 74.42232972 59.90184883 77.08673217 59.9375 80.6875 C59.958125 82.770625 59.97875 84.85375 60 87 C68.25 87 76.5 87 85 87 C84.505 88.485 84.505 88.485 84 90 C85.485 90.495 85.485 90.495 87 91 C87 90.34 87 89.68 87 89 C88.485 89.495 88.485 89.495 90 90 C89.67 90.66 89.34 91.32 89 92 C90.39025391 92.07347656 90.39025391 92.07347656 91.80859375 92.1484375 C93.00613281 92.22320312 94.20367187 92.29796875 95.4375 92.375 C97.22994141 92.47941406 97.22994141 92.47941406 99.05859375 92.5859375 C100.02925781 92.72257812 100.99992187 92.85921875 102 93 C102.33 93.66 102.66 94.32 103 95 C104.89533342 95.46523063 104.89533342 95.46523063 107.0625 95.625 C109.0115625 95.810625 109.0115625 95.810625 111 96 C111 96.33 111 96.66 111 97 C108.69 97 106.38 97 104 97 C104 97.66 104 98.32 104 99 C108.455 98.505 108.455 98.505 113 98 C113.33 98.66 113.66 99.32 114 100 C115.051875 99.979375 116.10375 99.95875 117.1875 99.9375 C120.32704904 99.98896802 122.96883396 100.26517187 126 101 C126 101.33 126 101.66 126 102 C123.525 102.495 123.525 102.495 121 103 C121.804375 103.433125 122.60875 103.86625 123.4375 104.3125 C126 106 126 106 127 109 C125.5625 111.6875 125.5625 111.6875 124 114 C124.99 115.485 124.99 115.485 126 117 C124.02 117.99 124.02 117.99 122 119 C126.62197306 121.21854707 129.76824163 122.38281159 135 122 C133 125 133 125 132 126 C134.31 126 136.62 126 139 126 C139.33 126.66 139.66 127.32 140 128 C139.34 128.99 138.68 129.98 138 131 C138 131.99 138 132.98 138 134 C121.62215067 150.66772277 96.84322132 158.13858891 74 158.375 C47.24315027 158.09808564 23.74869068 147.96512578 5 129 C3.79923828 127.81470703 3.79923828 127.81470703 2.57421875 126.60546875 C-14.77191417 108.54032514 -22.57705221 84.14155465 -22.3515625 59.43164062 C-21.74600265 37.54738046 -14.03024438 16.85533884 0 0 Z " fill="#100F0E" transform="translate(22,34)"/>
<path d="M0 0 C0.99 0.66 1.98 1.32 3 2 C5.11280345 2.63292383 5.11280345 2.63292383 7 3 C7 3.33 7 3.66 7 4 C5.02 4.66 3.04 5.32 1 6 C2.98 6 4.96 6 7 6 C7 6.66 7 7.32 7 8 C8.60397277 8.16852247 10.2081869 8.33474886 11.8125 8.5 C13.15248047 8.63921875 13.15248047 8.63921875 14.51953125 8.78125 C17.08305099 9.04392401 17.08305099 9.04392401 20 9 C19.67 9.99 19.34 10.98 19 12 C18.34 12 17.68 12 17 12 C16.93046995 24.28280092 16.87717333 36.56555496 16.84456348 48.84851265 C16.8289119 54.55207397 16.80768261 60.25550058 16.77368164 65.95898438 C16.74107052 71.46381834 16.72314317 76.96852278 16.71536827 82.47344589 C16.70982795 84.572987 16.69900906 86.67252107 16.68280983 88.77200699 C16.66101253 91.71420833 16.65803407 94.65587535 16.65942383 97.59814453 C16.648638 98.46489304 16.63785217 99.33164154 16.6267395 100.22465515 C16.65234214 105.23836429 17.24079858 108.64396454 20 113 C24.09187111 116.82787942 28.00207098 117.12739714 33.44165039 117.09765625 C35.08231224 117.09270142 35.08231224 117.09270142 36.75611877 117.08764648 C37.94132614 117.07934814 39.12653351 117.0710498 40.34765625 117.0625 C41.58752792 117.05871338 42.8273996 117.05492676 44.10484314 117.05102539 C49.39505557 117.03480238 54.68517884 117.00721875 59.9753418 116.97949219 C78.011194 116.89311467 95.98194874 117.16782517 114 118 C113.01 118.495 113.01 118.495 112 119 C111.67 119.99 111.34 120.98 111 122 C109.68352881 122.69937532 108.34977849 123.36729133 107 124 C106.67 124.66 106.34 125.32 106 126 C104.515 126.495 104.515 126.495 103 127 C102.34 127.66 101.68 128.32 101 129 C101 128.34 101 127.68 101 127 C100.01 127 99.02 127 98 127 C97.71125 127.639375 97.4225 128.27875 97.125 128.9375 C96 131 96 131 94 132 C91.875 131.0625 91.875 131.0625 90 130 C89.34 130.66 88.68 131.32 88 132 C87.195625 131.835 86.39125 131.67 85.5625 131.5 C82.77225382 130.64354576 82.77225382 130.64354576 80 133 C79.34 132.67 78.68 132.34 78 132 C77.34 132.66 76.68 133.32 76 134 C75.34 133.67 74.68 133.34 74 133 C74 132.34 74 131.68 74 131 C72.68 131.33 71.36 131.66 70 132 C70 132.99 70 133.98 70 135 C68.515 134.01 68.515 134.01 67 133 C66.34 133.99 65.68 134.98 65 136 C65.66 136.33 66.32 136.66 67 137 C66.34 137 65.68 137 65 137 C64.67 137.66 64.34 138.32 64 139 C62.375 139.8125 62.375 139.8125 60 140 C57.5473804 139.17895138 55.34049481 138.12523789 53 137 C52.67 137.66 52.34 138.32 52 139 C51.34 138.34 50.68 137.68 50 137 C49.34 137.66 48.68 138.32 48 139 C47.34 139 46.68 139 46 139 C45.67 138.67 45.34 138.34 45 138 C44.01 138.66 43.02 139.32 42 140 C40 140 38 140 36 140 C33.98777953 140.6288189 31.98723268 141.29618843 30 142 C29.01 142.33 28.02 142.66 27 143 C26.34 143.66 25.68 144.32 25 145 C1.35607851 130.02422649 -14.13807147 109.13819784 -20.4921875 81.7109375 C-25.66419325 54.10038372 -19.4988353 28.13553414 -4 5 C-2.6903997 3.31462093 -1.3654816 1.64043152 0 0 Z M56 135 C56.66 135.66 57.32 136.32 58 137 C58.33 136.34 58.66 135.68 59 135 C58.01 135 57.02 135 56 135 Z " fill="#030202" transform="translate(22,34)"/>
<path d="M0 0 C5.15949111 -0.04960315 10.318842 -0.08581559 15.47851562 -0.10986328 C17.23212097 -0.11989313 18.9857097 -0.13352029 20.73925781 -0.15087891 C23.26631785 -0.1752603 25.7931559 -0.1865134 28.3203125 -0.1953125 C29.09867462 -0.20563507 29.87703674 -0.21595764 30.6789856 -0.22659302 C37.75555106 -0.228037 44.36223163 1.55812189 50 6 C51.9375 9.25 51.9375 9.25 53 12 C51.90931332 8.22454612 51.0916909 5.52956528 48 3 C48.33 2.34 48.66 1.68 49 1 C49.639375 1.45375 50.27875 1.9075 50.9375 2.375 C53.70938799 3.84579771 55.4257493 4.34590866 58.4375 4.875 C63.25512974 5.84655533 65.60710817 7.44160125 69 11 C69.67966676 12.66140763 70.34938905 14.32700041 71 16 C71.62390625 16.10183594 72.2478125 16.20367187 72.890625 16.30859375 C75 17 75 17 76.4140625 19.30078125 C80.51390495 29.49748619 82.36601992 39.01940253 82 50 C74.83292123 49.67422369 69.23072876 46.34556372 63 43 C64.0828125 43.72316406 64.0828125 43.72316406 65.1875 44.4609375 C66.115625 45.09257813 67.04375 45.72421875 68 46.375 C68.928125 47.00148437 69.85625 47.62796875 70.8125 48.2734375 C71.534375 48.84320313 72.25625 49.41296875 73 50 C73 50.66 73 51.32 73 52 C74.98 52.495 74.98 52.495 77 53 C77.67578125 55.2578125 77.67578125 55.2578125 78 58 C73.85251892 65.63615649 65.28268042 71.46041499 57.31640625 74.32421875 C45.99356999 77.58313963 34.68442044 77.41118195 23 77 C21.7133355 74.426671 21.83175449 72.49776962 21.8125 69.625 C21.79832031 68.66851562 21.78414062 67.71203125 21.76953125 66.7265625 C22.00254428 63.96989983 22.59079836 62.35052605 24 60 C24.83402344 60.03480469 25.66804688 60.06960937 26.52734375 60.10546875 C35.06358416 60.31080787 42.38203351 59.98779245 49.375 54.6875 C53.37553931 50.59170976 55.14514916 47.2079625 55.375 41.5 C55.15844929 36.53599139 54.15541011 33.04196747 50.44140625 29.5234375 C45.532051 25.8694891 40.94924126 25.2370456 34.91015625 25.51953125 C30.42717005 26.25967528 27.2221883 27.78590765 24 31 C19.43274845 38.95585754 19.76313052 48.12634428 19.4375 57.0625 C19.39431641 58.18140625 19.35113281 59.3003125 19.30664062 60.453125 C19.06010838 67.1916731 18.96864407 73.89854707 19.02734375 80.640625 C18.99305965 84.85267172 18.79787068 89.04494472 18.5625 93.25 C18.52318359 93.99056641 18.48386719 94.73113281 18.44335938 95.49414062 C18.12292806 100.75414388 18.12292806 100.75414388 17 103 C11.39 103 5.78 103 0 103 C0 74.62 0 46.24 0 17 C42.81081081 17 42.81081081 17 52.1875 22.6875 C52.92355469 23.12449219 53.65960938 23.56148437 54.41796875 24.01171875 C54.94003906 24.33785156 55.46210937 24.66398437 56 25 C50.80016351 19.1698803 44.83046381 16.36926423 37.05282593 15.87667847 C34.6954288 15.78883226 32.33901985 15.7312411 29.98046875 15.68359375 C29.12189774 15.66281265 28.26332672 15.64203156 27.3787384 15.62062073 C24.64840346 15.55547477 21.91797605 15.49640346 19.1875 15.4375 C17.33137082 15.3942815 15.47525084 15.35066616 13.61914062 15.30664062 C9.07952075 15.19982939 4.53980828 15.09846435 0 15 C0 10.05 0 5.1 0 0 Z " fill="#0B7EDC" transform="translate(59,44)"/>
<path d="M0 0 C1.65 0 3.3 0 5 0 C5 0.66 5 1.32 5 2 C5.61875 2.061875 6.2375 2.12375 6.875 2.1875 C9 3 9 3 10.4375 5.25 C11 8 11 8 9.625 10.8125 C9.08875 11.534375 8.5525 12.25625 8 13 C8.56203125 12.83628906 9.1240625 12.67257813 9.703125 12.50390625 C12.13059056 11.97135003 14.26889681 11.90101319 16.75 11.9375 C17.54921875 11.94652344 18.3484375 11.95554687 19.171875 11.96484375 C19.77515625 11.97644531 20.3784375 11.98804688 21 12 C21 12.66 21 13.32 21 14 C21.99 14.33 22.98 14.66 24 15 C23.67 15.66 23.34 16.32 23 17 C23.99 17 24.98 17 26 17 C27.6875 19.5 27.6875 19.5 29 22 C27.68 22.99 26.36 23.98 25 25 C25.99 26.485 25.99 26.485 27 28 C27.33 27.34 27.66 26.68 28 26 C30.31 26.33 32.62 26.66 35 27 C35 27.66 35 28.32 35 29 C36.2065625 28.9690625 36.2065625 28.9690625 37.4375 28.9375 C40 29 40 29 41 30 C44.81041586 54.60439957 40.1548605 81.04920465 25.53515625 101.56640625 C23.1303025 104.80530019 20.59889132 107.91489226 18 111 C17.40703125 111.70769531 16.8140625 112.41539062 16.203125 113.14453125 C13.90151592 115.67748764 12.57585187 116.92488889 9.125 117.375 C8.073125 117.189375 8.073125 117.189375 7 117 C7.66 116.360625 8.32 115.72125 9 115.0625 C11.11602431 113.35917681 11.11602431 113.35917681 11 112 C8.69 111.67 6.38 111.34 4 111 C4.33 110.34 4.66 109.68 5 109 C5 108.67 5 108.34 5 108 C3.7625 107.896875 2.525 107.79375 1.25 107.6875 C-2.28064473 107.25007499 -4.41670271 106.58329729 -7 104 C-7.33 103.34 -7.66 102.68 -8 102 C-5.525 101.505 -5.525 101.505 -3 101 C-3.99 100.01 -3.99 100.01 -5 99 C-4.46375 98.2575 -3.9275 97.515 -3.375 96.75 C-1.70403248 94.15958528 -1.70403248 94.15958528 -2.5625 91.8125 C-4.19136245 89.75871691 -5.58580282 88.96567887 -8 88 C-7.67 87.34 -7.34 86.68 -7 86 C-9.97 86 -12.94 86 -16 86 C-15.67 85.34 -15.34 84.68 -15 84 C-17.97 84 -20.94 84 -24 84 C-24 83.34 -24 82.68 -24 82 C-25.485 81.01 -25.485 81.01 -27 80 C-26.67 79.67 -26.34 79.34 -26 79 C-31.37084106 78.31798844 -36.58500559 77.88478735 -42 78 C-41.34 77.01 -40.68 76.02 -40 75 C-40.495 75.495 -40.495 75.495 -41 76 C-42.99958364 76.04080783 -45.00045254 76.04254356 -47 76 C-46.34 75.01 -45.68 74.02 -45 73 C-45.66 72.34 -46.32 71.68 -47 71 C-45.93523437 70.79246094 -44.87046875 70.58492188 -43.7734375 70.37109375 C-33.5771429 68.2518315 -25.08534116 65.12580262 -16 60 C-15.67 60.66 -15.34 61.32 -15 62 C-13.33678518 62.35015049 -11.66965451 62.68197057 -10 63 C-9.01 63.66 -8.02 64.32 -7 65 C-4.37468476 65.16713569 -4.37468476 65.16713569 -2 65 C-2 65.99 -2 66.98 -2 68 C-1.01 68.495 -1.01 68.495 0 69 C0 46.23 0 23.46 0 0 Z " fill="#232222" transform="translate(150,49)"/>
<path d="M0 0 C17.83466008 -1.45589062 37.0992479 8.39674448 50.65917969 19.33886719 C68.37378392 34.39574495 82.15830731 53.43354854 85 77 C83.35 77 81.7 77 80 77 C80 76.34 80 75.68 80 75 C78.906875 75 77.81375 75 76.6875 75 C74.45833333 75 72.22916667 75 70 75 C69.67 74.01 69.34 73.02 69 72 C70.98 70.515 70.98 70.515 73 69 C72.34 67.68 71.68 66.36 71 65 C70.46375 65.185625 69.9275 65.37125 69.375 65.5625 C66.38009386 66.11419324 63.96254171 65.60597444 61 65 C61 64.67 61 64.34 61 64 C64.465 63.505 64.465 63.505 68 63 C67.34 62.67 66.68 62.34 66 62 C66 61.34 66 60.68 66 60 C63.36 60.33 60.72 60.66 58 61 C58 61.33 58 61.66 58 62 C56.35 62 54.7 62 53 62 C52.67 61.34 52.34 60.68 52 60 C52.99 59.01 52.99 59.01 54 58 C55.04449911 54.86650268 54.93423645 54.01031744 54 51 C52.02 50.505 52.02 50.505 50 50 C50 49.34 50 48.68 50 48 C48.35 48 46.7 48 45 48 C45 70.77 45 93.54 45 117 C43.515 116.505 43.515 116.505 42 116 C42.495 114.515 42.495 114.515 43 113 C41.576875 113.2784375 41.576875 113.2784375 40.125 113.5625 C37 114 37 114 35 113 C35 112.34 35 111.68 35 111 C32.37473259 109.59420508 32.37473259 109.59420508 29 109 C26.45807582 110.06834494 24.34081566 111.51448237 22 113 C21.01 112.505 21.01 112.505 20 112 C20.71027344 111.41992188 21.42054687 110.83984375 22.15234375 110.2421875 C23.07144531 109.46101563 23.99054688 108.67984375 24.9375 107.875 C25.85402344 107.10929687 26.77054688 106.34359375 27.71484375 105.5546875 C30.33141329 102.62949694 30.73718722 100.85831534 31 97 C30.13375 96.62875 30.13375 96.62875 29.25 96.25 C27 95 27 95 25.3125 93.25 C21.9192872 89.94849565 17.97506198 87.54811665 14 85 C14.66 84.67 15.32 84.34 16 84 C18.68661322 85.2222614 21.27026688 86.49656601 23.875 87.875 C25.30796588 88.62608945 26.74280941 89.3736097 28.1796875 90.1171875 C28.81632324 90.45347168 29.45295898 90.78975586 30.10888672 91.13623047 C32.05365112 92.02450525 33.91459541 92.54730474 36 93 C34.48661442 75.77500849 34.48661442 75.77500849 28 60 C27.01 59.67 26.02 59.34 25 59 C23.65668346 57.00669158 22.32405988 55.00615134 21 53 C18.49838531 50.40573291 16.37594975 49.81767851 12.9375 49.1875 C7.98154559 48.22406899 4.10059988 46.07557741 -0.2265625 43.53515625 C-7.25850609 39.64282691 -12.44411888 38.51391709 -20.4375 38.3125 C-21.35982422 38.27833984 -22.28214844 38.24417969 -23.23242188 38.20898438 C-25.48815951 38.12717006 -27.74354119 38.05780878 -30 38 C-30 37.67 -30 37.34 -30 37 C-8.88 37 12.24 37 34 37 C30.535 35.515 30.535 35.515 27 34 C27 32.68 27 31.36 27 30 C26.01 30.99 25.02 31.98 24 33 C23.01 32.67 22.02 32.34 21 32 C21 31.34 21 30.68 21 30 C21.99 30 22.98 30 24 30 C24 29.34 24 28.68 24 28 C22.35 28 20.7 28 19 28 C19 27.34 19 26.68 19 26 C18.34 26 17.68 26 17 26 C16.34 24.68 15.68 23.36 15 22 C15.99 22 16.98 22 18 22 C18 21.34 18 20.68 18 20 C17.01 19.67 16.02 19.34 15 19 C16.65 19 18.3 19 20 19 C20 18.34 20 17.68 20 17 C18.68 16.67 17.36 16.34 16 16 C16 15.34 16 14.68 16 14 C15.34 14 14.68 14 14 14 C14 13.34 14 12.68 14 12 C12.35 12 10.7 12 9 12 C9.99 11.34 10.98 10.68 12 10 C10.68 9.67 9.36 9.34 8 9 C8 8.34 8 7.68 8 7 C7.34 6.67 6.68 6.34 6 6 C6.33 5.67 6.66 5.34 7 5 C6.34 4.67 5.68 4.34 5 4 C5 3.34 5 2.68 5 2 C3.35 2 1.7 2 0 2 C0 1.34 0 0.68 0 0 Z " fill="#302E2F" transform="translate(105,1)"/>
<path d="M0 0 C0.99 0.66 1.98 1.32 3 2 C5.11280345 2.63292383 5.11280345 2.63292383 7 3 C7 3.33 7 3.66 7 4 C5.02 4.66 3.04 5.32 1 6 C2.98 6 4.96 6 7 6 C7 6.66 7 7.32 7 8 C8.60397277 8.16852247 10.2081869 8.33474886 11.8125 8.5 C13.15248047 8.63921875 13.15248047 8.63921875 14.51953125 8.78125 C17.08305099 9.04392401 17.08305099 9.04392401 20 9 C19.67 9.99 19.34 10.98 19 12 C18.34 12 17.68 12 17 12 C17 12.99 17 13.98 17 15 C14.625 17.6875 14.625 17.6875 12 20 C11.34 20 10.68 20 10 20 C9.67 21.98 9.34 23.96 9 26 C8.34 26 7.68 26 7 26 C7 26.66 7 27.32 7 28 C6.34 28 5.68 28 5 28 C5.020625 28.9075 5.04125 29.815 5.0625 30.75 C5.0110245 33.42672588 4.7784983 35.46988052 4 38 C3.34 38 2.68 38 2 38 C2.0928125 39.485 2.0928125 39.485 2.1875 41 C2.22552424 44.13066208 1.58065128 46.27436935 0.3125 49.125 C-0.56563112 51.08229527 -0.56563112 51.08229527 -1 53 C0.17274994 55.87391821 0.17274994 55.87391821 2 58 C2 58.66 2 59.32 2 60 C1.34 60 0.68 60 0 60 C-0.2165625 61.7015625 -0.2165625 61.7015625 -0.4375 63.4375 C-1 67 -1 67 -2 68 C-1.34 68.66 -0.68 69.32 0 70 C-0.99 70.495 -0.99 70.495 -2 71 C-1.67 72.32 -1.34 73.64 -1 75 C-1.99 75.495 -1.99 75.495 -3 76 C-2.34 77.65 -1.68 79.3 -1 81 C-2.98 81.99 -2.98 81.99 -5 83 C-4.835 83.680625 -4.67 84.36125 -4.5 85.0625 C-3.05363703 93.55988244 -3.05363703 93.55988244 -5.4375 97.1875 C-5.953125 97.785625 -6.46875 98.38375 -7 99 C-7.70514846 101.14733927 -7.70514846 101.14733927 -8 103 C-9.65 103 -11.3 103 -13 103 C-23.83323179 78.85002874 -25.35639659 52.94802655 -16.375 27.9375 C-12.52193591 17.82071771 -6.92319501 8.31723201 0 0 Z M-4 83 C-2 84 -2 84 -2 84 Z " fill="#0E0E0D" transform="translate(22,34)"/>
<path d="M0 0 C2.0625 0.4375 2.0625 0.4375 4 1 C4 1.66 4 2.32 4 3 C4.99 3.33 5.98 3.66 7 4 C8.85026394 8.71817304 9.19884975 12.08471601 8 17 C5.03 17.495 5.03 17.495 2 18 C2.78246094 18.47050781 3.56492188 18.94101563 4.37109375 19.42578125 C5.38300781 20.04839844 6.39492187 20.67101562 7.4375 21.3125 C8.44683594 21.92738281 9.45617187 22.54226562 10.49609375 23.17578125 C13 25 13 25 14 28 C16.01508358 28.73323796 16.01508358 28.73323796 18 29 C18.67578125 31.2578125 18.67578125 31.2578125 19 34 C14.85251892 41.63615649 6.28268042 47.46041499 -1.68359375 50.32421875 C-13.00643001 53.58313963 -24.31557956 53.41118195 -36 53 C-37.2866645 50.426671 -37.16824551 48.49776962 -37.1875 45.625 C-37.20167969 44.66851562 -37.21585937 43.71203125 -37.23046875 42.7265625 C-36.99745572 39.96989983 -36.40920164 38.35052605 -35 36 C-34.16597656 36.03480469 -33.33195312 36.06960937 -32.47265625 36.10546875 C-23.93641584 36.31080787 -16.61796649 35.98779245 -9.625 30.6875 C-5.5997981 26.56645996 -3.84643683 23.24763505 -3.75 17.5 C-3.8238544 14.7443077 -4.11295864 12.51992579 -4.75 9.8125 C-5.10513698 5.81720895 -3.42221633 4.06339124 -1 1 C-0.67 0.67 -0.34 0.34 0 0 Z " fill="#0578E7" transform="translate(118,68)"/>
<path d="M0 0 C34 0 34 0 40 2 C40 2.33 40 2.66 40 3 C39.443125 3.08636719 38.88625 3.17273438 38.3125 3.26171875 C29.72477501 4.8429046 24.01650249 8.90650235 17.609375 14.65234375 C16 16 16 16 13.0625 17.6875 C12.381875 18.120625 11.70125 18.55375 11 19 C10.84188612 22.05270463 10.84188612 22.05270463 12 25 C11.125 27.5 11.125 27.5 10 30 C9.67 30.99 9.34 31.98 9 33 C9.99 33.99 10.98 34.98 12 36 C11.34 36.99 10.68 37.98 10 39 C10.66 39.99 11.32 40.98 12 42 C11 44 10 46 9 48 C9.66 48.33 10.32 48.66 11 49 C11.07885893 52.23321613 10.96637307 55.23118512 10.5 58.4375 C9.90820548 61.97828972 9.90820548 61.97828972 10.0625 65.5 C9.99345873 69.36631119 9.3484536 72.38046666 8 76 C6.515 76.99 6.515 76.99 5 78 C4.484375 78.53625 3.96875 79.0725 3.4375 79.625 C2 81 2 81 0 81 C0 54.27 0 27.54 0 0 Z " fill="#0571E7" transform="translate(60,65)"/>
<path d="M0 0 C4.55979507 2.85547822 7.76024368 5.5629535 9.3203125 10.8671875 C10.30764574 16.96141684 9.29361267 21.09809181 5.7578125 26.140625 C3.33159703 29.05472075 0.7013289 31.1766793 -2.6796875 32.8671875 C-7.63137155 33.11071295 -11.17533562 33.11936344 -15.6796875 30.8671875 C-16.4428125 30.4959375 -17.2059375 30.1246875 -17.9921875 29.7421875 C-18.5490625 29.4534375 -19.1059375 29.1646875 -19.6796875 28.8671875 C-19.6796875 28.2071875 -19.6796875 27.5471875 -19.6796875 26.8671875 C-20.3396875 26.8671875 -20.9996875 26.8671875 -21.6796875 26.8671875 C-24.4211891 24.32776218 -24.7025826 22.68846372 -25.18359375 18.93359375 C-25.21930046 17.43258927 -25.23834098 15.9311117 -25.2421875 14.4296875 C-25.27892578 13.67880859 -25.31566406 12.92792969 -25.35351562 12.15429688 C-25.39603294 6.78294266 -25.39603294 6.78294266 -23.44482422 4.28857422 C-16.68611831 -1.51646232 -8.46394035 -3.57805059 0 0 Z " fill="#22211F" transform="translate(105.6796875,70.1328125)"/>
<path d="M0 0 C42.81081081 0 42.81081081 0 52.1875 5.6875 C52.92355469 6.12449219 53.65960938 6.56148438 54.41796875 7.01171875 C55.20107422 7.50091797 55.20107422 7.50091797 56 8 C54.68 9.65 53.36 11.3 52 13 C48 11 48 11 46.15625 9.96875 C43.77906023 8.90073721 41.83799886 8.60335284 39.25 8.375 C38.45078125 8.30023438 37.6515625 8.22546875 36.828125 8.1484375 C36.22484375 8.09945312 35.6215625 8.05046875 35 8 C35 7.01 35 6.02 35 5 C34.07662842 5.00523682 33.15325684 5.01047363 32.2019043 5.01586914 C28.77465186 5.03291585 25.3474445 5.0454525 21.92016602 5.05493164 C20.43708587 5.05995903 18.95401067 5.06678185 17.47094727 5.07543945 C15.33869199 5.08757482 13.20650227 5.09324425 11.07421875 5.09765625 C9.79119873 5.10289307 8.50817871 5.10812988 7.1862793 5.11352539 C4 5 4 5 1 4 C1 30.73 1 57.46 1 85 C4.9254644 82.52174919 4.9254644 82.52174919 6 80 C6.99 80 7.98 80 9 80 C8.979375 79.113125 8.95875 78.22625 8.9375 77.3125 C9 74 9 74 9.5 71.625 C10.1840396 68.03379211 10.05899699 64.65781326 10 61 C10 60.01 10 59.02 10 58 C9.97679688 57.21625 9.95359375 56.4325 9.9296875 55.625 C9.90261719 54.325625 9.90261719 54.325625 9.875 53 C9.85179688 52.13375 9.82859375 51.2675 9.8046875 50.375 C10 48 10 48 12 45 C11.34 44.34 10.68 43.68 10 43 C10.66 42.01 11.32 41.02 12 40 C12 39.34 12 38.68 12 38 C11.01 37.67 10.02 37.34 9 37 C9.67170806 33.1936543 10.72746564 29.64793184 12 26 C11.34 25.67 10.68 25.34 10 25 C11.32291145 21.03126566 12.91149738 20.70094963 16.5625 18.8125 C17.57441406 18.28269531 18.58632812 17.75289062 19.62890625 17.20703125 C20.41136719 16.80871094 21.19382812 16.41039063 22 16 C21.79431396 17.084021 21.79431396 17.084021 21.58447266 18.18994141 C20.25196526 25.6087986 19.59958099 32.84685803 19.375 40.375 C19.33632812 41.47134766 19.29765625 42.56769531 19.2578125 43.69726562 C19.03692644 50.35145811 18.96938427 56.9835645 19.02734375 63.640625 C18.99305965 67.85267172 18.79787068 72.04494472 18.5625 76.25 C18.52318359 76.99056641 18.48386719 77.73113281 18.44335938 78.49414062 C18.12292806 83.75414388 18.12292806 83.75414388 17 86 C11.39 86 5.78 86 0 86 C0 57.62 0 29.24 0 0 Z " fill="#065ED4" transform="translate(59,61)"/>
<path d="M0 0 C8.07595493 -0.09297974 16.15168348 -0.1639056 24.2280426 -0.20724869 C27.97888189 -0.22805897 31.72935302 -0.25625467 35.47998047 -0.30175781 C39.10452862 -0.3454525 42.72872427 -0.36918636 46.35351562 -0.37950897 C47.73133894 -0.38685832 49.10914455 -0.40120946 50.48681641 -0.42292023 C58.34484753 -0.54174803 64.42829673 -0.58805148 71 4 C74.63359092 8.05886027 74.39569545 12.38379272 74.29296875 17.58203125 C74.28872391 18.39621017 74.28447906 19.2103891 74.28010559 20.04924011 C74.26337753 22.63733668 74.22573712 25.22464071 74.1875 27.8125 C74.17244553 29.57225434 74.15875846 31.33202095 74.14648438 33.09179688 C74.11349336 37.39483437 74.0617524 41.69728303 74 46 C73.67 46 73.34 46 73 46 C72.896875 45.21625 72.79375 44.4325 72.6875 43.625 C72.22404978 40.66954819 72.22404978 40.66954819 69 39 C68.296875 37.00390625 68.296875 37.00390625 67.75 34.5625 C65.11601827 25.11837898 59.37527067 16.28964464 51 11 C44.81929535 8.0914331 38.77411549 5.95610639 32 5 C31.67 5.66 31.34 6.32 31 7 C30.43796875 6.65066406 29.8759375 6.30132812 29.296875 5.94140625 C19.92575361 0.86777765 10.40135146 1.11206157 0 1 C0 0.67 0 0.34 0 0 Z " fill="#5B5754" transform="translate(75,38)"/>
<path d="M0 0 C42.81081081 0 42.81081081 0 52.1875 5.6875 C52.92355469 6.12449219 53.65960938 6.56148438 54.41796875 7.01171875 C55.20107422 7.50091797 55.20107422 7.50091797 56 8 C54.68 9.65 53.36 11.3 52 13 C48 11 48 11 46.15625 9.96875 C43.77906023 8.90073721 41.83799886 8.60335284 39.25 8.375 C38.45078125 8.30023438 37.6515625 8.22546875 36.828125 8.1484375 C36.22484375 8.09945312 35.6215625 8.05046875 35 8 C35 7.01 35 6.02 35 5 C34.07662842 5.00523682 33.15325684 5.01047363 32.2019043 5.01586914 C28.77465186 5.03291585 25.3474445 5.0454525 21.92016602 5.05493164 C20.43708587 5.05995903 18.95401067 5.06678185 17.47094727 5.07543945 C15.33869199 5.08757482 13.20650227 5.09324425 11.07421875 5.09765625 C9.79119873 5.10289307 8.50817871 5.10812988 7.1862793 5.11352539 C4 5 4 5 1 4 C1 31.06 1 58.12 1 86 C0.67 86 0.34 86 0 86 C0 57.62 0 29.24 0 0 Z " fill="#0E59BA" transform="translate(59,61)"/>
<path d="M0 0 C0.33 0 0.66 0 1 0 C1.04898438 0.96421875 1.09796875 1.9284375 1.1484375 2.921875 C1.22320312 4.18515625 1.29796875 5.4484375 1.375 6.75 C1.44460937 8.00296875 1.51421875 9.2559375 1.5859375 10.546875 C1.95323304 13.60998121 2.39711286 15.41974266 4 18 C4.66 18 5.32 18 6 18 C6 18.66 6 19.32 6 20 C7.98 20 9.96 20 12 20 C11.67 20.66 11.34 21.32 11 22 C14.3 22.66 17.6 23.32 21 24 C21 24.33 21 24.66 21 25 C17.00204108 25.95619733 13.29196078 26.1039592 9.1875 26.0625 C8.02605469 26.05347656 6.86460938 26.04445313 5.66796875 26.03515625 C4.78753906 26.02355469 3.90710938 26.01195313 3 26 C2.00838059 28.97485823 1.92692161 30.66243787 2 33.75 C2.05540074 40.17648528 1.83077855 46.57933339 1.5625 53 C1.52318359 54.01545898 1.48386719 55.03091797 1.44335938 56.07714844 C1.40146484 57.04168945 1.35957031 58.00623047 1.31640625 59 C1.27974854 59.86625 1.24309082 60.7325 1.20532227 61.625 C1.01266081 63.85355014 0.61111083 65.85256835 0 68 C-1.32 68 -2.64 68 -4 68 C-3.9278125 66.83726562 -3.855625 65.67453125 -3.78125 64.4765625 C-3.30161711 56.35192393 -2.92841927 48.26501373 -3 40.125 C-3.04637167 33.40709175 -2.91067901 26.71226649 -2.625 20 C-2.5940625 19.15195801 -2.563125 18.30391602 -2.53125 17.43017578 C-2.25119946 11.47326733 -1.31577726 5.81353994 0 0 Z " fill="#041230" transform="translate(80,79)"/>
<path d="M0 0 C4.75689796 2.01093354 8.0190898 4.66239518 11.0625 8.8125 C12.28004748 12.95216144 12.25684873 16.7191878 12 21 C11.67 20.01 11.34 19.02 11 18 C8.2560995 17.43507931 5.60518191 16.96129234 2.8125 16.6875 C0 16 0 16 -1.375 13.9375 C-1.58125 13.298125 -1.7875 12.65875 -2 12 C-2.99 12 -3.98 12 -5 12 C-5 11.34 -5 10.68 -5 10 C-5.5775 9.855625 -6.155 9.71125 -6.75 9.5625 C-8.83333333 9.04166667 -10.91666667 8.52083333 -13 8 C-13 7.34 -13 6.68 -13 6 C-15.97 5.505 -15.97 5.505 -19 5 C-13.70926323 -0.81981044 -7.51732341 -1.07390334 0 0 Z " fill="#363635" transform="translate(103,69)"/>
<path d="M0 0 C2.0625 0.4375 2.0625 0.4375 4 1 C4 1.66 4 2.32 4 3 C4.99 3.33 5.98 3.66 7 4 C8.85026394 8.71817304 9.19884975 12.08471601 8 17 C4.71303767 17.79953138 3.28976808 18.09658936 0 17 C0.08378906 17.62648438 0.16757813 18.25296875 0.25390625 18.8984375 C0.35574219 19.71570313 0.45757812 20.53296875 0.5625 21.375 C0.66691406 22.18710938 0.77132812 22.99921875 0.87890625 23.8359375 C1 26 1 26 0 28 C0.66 28.33 1.32 28.66 2 29 C3.26229508 33.47540984 3.26229508 33.47540984 2 36 C2.66 36.33 3.32 36.66 4 37 C4 37.99 4 38.98 4 40 C-2.625 40.25 -2.625 40.25 -6 38 C-6.6875 35.875 -6.6875 35.875 -7 34 C-5.68 33.34 -4.36 32.68 -3 32 C-2.87382226 27.99775164 -2.87382226 27.99775164 -3.50390625 24.0703125 C-4.04107633 21.82857909 -4.06456395 19.92509078 -4 17.625 C-3.94346278 14.74631336 -4.08181052 12.65230531 -4.75 9.8125 C-5.10513698 5.81720895 -3.42221633 4.06339124 -1 1 C-0.67 0.67 -0.34 0.34 0 0 Z " fill="#0590E9" transform="translate(118,68)"/>
<path d="M0 0 C12.15918236 0.78446338 20.83653834 4.75808772 29 14 C34.62658661 22.15343551 37.17853 28.09741108 37.1875 37.9375 C37.19974609 38.64068359 37.21199219 39.34386719 37.22460938 40.06835938 C37.23613272 44.16682735 36.82416742 47.31561442 35 51 C34.67 51 34.34 51 34 51 C33.93530518 50.42668945 33.87061035 49.85337891 33.80395508 49.26269531 C32.2527565 32.93845529 32.2527565 32.93845529 26 18 C25.01 17.67 24.02 17.34 23 17 C21.65668346 15.00669158 20.32405988 13.00615134 19 11 C15.87534615 7.75961823 12.44749842 7.37575751 8.19140625 6.52734375 C5.36489093 5.84716627 3.28738802 4.78702189 1 3 C0.67 2.01 0.34 1.02 0 0 Z " fill="#091839" transform="translate(107,43)"/>
<path d="M0 0 C-2.07671812 6.23015437 -5.5351806 8.72110836 -11 12 C-11.70125 12.721875 -12.4025 13.44375 -13.125 14.1875 C-15 16 -15 16 -18 16 C-18 16.99 -18 17.98 -18 19 C-13.38 19 -8.76 19 -4 19 C-4 19.33 -4 19.66 -4 20 C-10.93 20 -17.86 20 -25 20 C-26.2866645 17.426671 -26.16824551 15.49776962 -26.1875 12.625 C-26.20167969 11.66851562 -26.21585937 10.71203125 -26.23046875 9.7265625 C-25.99745572 6.96989983 -25.40920164 5.35052605 -24 3 C-23.16597656 3.03480469 -22.33195312 3.06960937 -21.47265625 3.10546875 C-15.0421054 3.26015554 -9.70877164 3.06140014 -3.70703125 0.65625 C-2 0 -2 0 0 0 Z " fill="#0662D6" transform="translate(107,101)"/>
<path d="M0 0 C0.49628906 0.27714844 0.99257812 0.55429687 1.50390625 0.83984375 C5.01412466 2.71151618 7.62269564 3.95446327 11.625 4.4375 C16.2253719 5.20422865 17.74916913 6.67356841 21 10 C21.67966676 11.66140763 22.34938905 13.32700041 23 15 C23.62390625 15.10183594 24.2478125 15.20367187 24.890625 15.30859375 C27 16 27 16 28.4140625 18.30078125 C32.51390495 28.49748619 34.36601992 38.01940253 34 49 C27.25 48.25 27.25 48.25 25 46 C26.375 44.5 26.375 44.5 28 43 C28.66 43 29.32 43 30 43 C29.67 41.741875 29.34 40.48375 29 39.1875 C28.32396773 36.61012698 28 34.69787075 28 32 C27.34 31.67 26.68 31.34 26 31 C26.4640625 29.515 26.4640625 29.515 26.9375 28 C27.34946499 25.25542241 27.16993901 24.26473157 25.6484375 21.89453125 C23.83701949 19.84030614 21.97128295 17.90087999 20 16 C18.64946454 14.68409365 17.30693833 13.35921586 16 12 C16 11.34 16 10.68 16 10 C14.68 9.67 13.36 9.34 12 9 C12 8.34 12 7.68 12 7 C9.58354218 6.83312552 9.58354218 6.83312552 7 7 C6.34 7.66 5.68 8.32 5 9 C1.125 3.375 1.125 3.375 0 0 Z " fill="#0C51A9" transform="translate(107,45)"/>
<path d="M0 0 C5.15949111 -0.04960315 10.318842 -0.08581559 15.47851562 -0.10986328 C17.23212097 -0.11989313 18.9857097 -0.13352029 20.73925781 -0.15087891 C23.26631785 -0.1752603 25.7931559 -0.1865134 28.3203125 -0.1953125 C29.09867462 -0.20563507 29.87703674 -0.21595764 30.6789856 -0.22659302 C37.75146151 -0.22803616 44.36795814 1.55440351 50 6 C51.8125 9.1875 51.8125 9.1875 53 12 C53.66 12.33 54.32 12.66 55 13 C56.72718916 17.12606298 57.2120464 20.54702569 57 25 C56.34 24.34 55.68 23.68 55 23 C55 21.68 55 20.36 55 19 C54.34 19 53.68 19 53 19 C52 17.33333333 51 15.66666667 50 14 C44.42078587 7.83350018 39.22669453 5.15113101 31 4 C25.6423036 3.76450871 20.29864575 3.81013509 14.9375 3.875 C13.48503222 3.88505168 12.0325577 3.89417365 10.58007812 3.90234375 C7.05324318 3.92417983 3.5266658 3.95858851 0 4 C0 2.68 0 1.36 0 0 Z " fill="#0C499F" transform="translate(59,44)"/>
<path d="M0 0 C0.33 0 0.66 0 1 0 C0.95456055 1.25321045 0.95456055 1.25321045 0.90820312 2.53173828 C0.79439676 5.70387188 0.68286554 8.876076 0.57275391 12.04833984 C0.50201647 14.06744276 0.42877926 16.08645762 0.35546875 18.10546875 C0.09381944 25.69329877 -0.0197984 33.26385688 0.00927734 40.85693359 C-0.00295031 44.99953291 -0.17672606 49.11653837 -0.4375 53.25 C-0.47681641 53.98089844 -0.51613281 54.71179688 -0.55664062 55.46484375 C-0.87402344 60.74804688 -0.87402344 60.74804688 -2 63 C-5.63 63 -9.26 63 -13 63 C-13 62.67 -13 62.34 -13 62 C-10.69 62 -8.38 62 -6 62 C-6.01160156 60.78183594 -6.02320312 59.56367188 -6.03515625 58.30859375 C-6.04454178 56.68489738 -6.05364116 55.06119933 -6.0625 53.4375 C-6.07087891 52.63763672 -6.07925781 51.83777344 -6.08789062 51.01367188 C-6.10738063 46.23862151 -5.78943632 41.72492259 -5 37 C-4.37145403 32.05020049 -3.94109419 27.14780757 -3.67578125 22.16430664 C-2.78096114 5.56192228 -2.78096114 5.56192228 0 0 Z " fill="#0841A1" transform="translate(78,84)"/>
<path d="M0 0 C0.68320312 0.165 1.36640625 0.33 2.0703125 0.5 C5.40092051 1.06842377 8.49779538 1.05911956 11.875 1 C17.77007026 0.95688036 22.9876815 1.38384394 28.75 2.5625 C31.10878434 3.09543483 31.10878434 3.09543483 34 3 C34.495 4.98 34.495 4.98 35 7 C36.32 7.33 37.64 7.66 39 8 C26.13 8 13.26 8 0 8 C0 5.36 0 2.72 0 0 Z " fill="#047EEA" transform="translate(60,50)"/>
<path d="M0 0 C1.67542976 0.28604898 3.34385343 0.61781233 5 1 C5 1.66 5 2.32 5 3 C6.32 3.33 7.64 3.66 9 4 C9 4.66 9 5.32 9 6 C9.99 6.33 10.98 6.66 12 7 C17 12.46511628 17 12.46511628 17 15 C17.99 15.33 18.98 15.66 20 16 C20.8125 17.8125 20.8125 17.8125 21 20 C20.0625 22.25 20.0625 22.25 19 24 C19.66 24.33 20.32 24.66 21 25 C22.41644354 29.09194801 23.26260116 32.66708088 23 37 C22.34 37 21.68 37 21 37 C20.67 37.99 20.34 38.98 20 40 C14.25 39.25 14.25 39.25 12 37 C12.66 36.278125 13.32 35.55625 14 34.8125 C16.15792086 31.77792378 16.58654327 30.6170168 16 27 C15.34 26.34 14.68 25.68 14 25 C14.495 24.608125 14.99 24.21625 15.5 23.8125 C17.45593143 21.44908285 17.24207973 19.98564997 17 17 C16.01 16.67 15.02 16.34 14 16 C13.4225 15.0925 12.845 14.185 12.25 13.25 C9.52568457 9.31487771 7.03148594 7.538343 3 5 C2.34 5 1.68 5 1 5 C1 6.65 1 8.3 1 10 C-0.85064319 6.87703962 -1.29356154 4.62059232 -1 1 C-0.67 0.67 -0.34 0.34 0 0 Z " fill="#0876DA" transform="translate(114,51)"/>
<path d="M0 0 C0.33 0 0.66 0 1 0 C1 16.83 1 33.66 1 51 C-3.86808988 50.02638202 -6.1450803 48.95842675 -10 46 C-10 45.34 -10 44.68 -10 44 C-8.515 43.505 -8.515 43.505 -7 43 C-6.34 37.72 -5.68 32.44 -5 27 C-3.68 27.66 -2.36 28.32 -1 29 C-0.67 19.43 -0.34 9.86 0 0 Z " fill="#423F3D" transform="translate(149,50)"/>
<path d="M0 0 C2.125 0.9375 2.125 0.9375 4 2 C4.33 1.34 4.66 0.68 5 0 C7 0 7 0 8.625 1.5 C9.305625 2.2425 9.305625 2.2425 10 3 C10.66 2.34 11.32 1.68 12 1 C12 2.32 12 3.64 12 5 C12.66 5.33 13.32 5.66 14 6 C13.34 6 12.68 6 12 6 C11.67 6.66 11.34 7.32 11 8 C9.375 8.8125 9.375 8.8125 7 9 C4.5473804 8.17895138 2.34049481 7.12523789 0 6 C-0.33 6.66 -0.66 7.32 -1 8 C-1.66 7.34 -2.32 6.68 -3 6 C-3.66 6.66 -4.32 7.32 -5 8 C-5.66 8 -6.32 8 -7 8 C-7.33 7.67 -7.66 7.34 -8 7 C-8.99 7.66 -9.98 8.32 -11 9 C-13 9 -15 9 -17 9 C-17.639375 9.185625 -18.27875 9.37125 -18.9375 9.5625 C-21.29664922 10.06292559 -22.7285156 9.73011998 -25 9 C-25 7.35 -25 5.7 -25 4 C-25.66 3.67 -26.32 3.34 -27 3 C-26.38125 3.20625 -25.7625 3.4125 -25.125 3.625 C-24.073125 3.810625 -24.073125 3.810625 -23 4 C-22.34 3.34 -21.68 2.68 -21 2 C-21 2.99 -21 3.98 -21 5 C-19.35 5 -17.7 5 -16 5 C-15.67 4.34 -15.34 3.68 -15 3 C-14.01 3 -13.02 3 -12 3 C-10.30723356 2.717415 -8.61978982 2.40193108 -6.9375 2.0625 C-6.05964844 1.88847656 -5.18179688 1.71445313 -4.27734375 1.53515625 C-1.98593817 1.08911304 -1.98593817 1.08911304 0 0 Z M3 4 C3.66 4.66 4.32 5.32 5 6 C5.33 5.34 5.66 4.68 6 4 C5.01 4 4.02 4 3 4 Z " fill="#090708" transform="translate(75,165)"/>
<path d="M0 0 C6.13986401 -0.43856171 11.00246932 0.13273125 16 4 C19.60091179 8.38656528 19.36394232 12.41517453 19.1875 17.8125 C19.16719727 18.99489258 19.16719727 18.99489258 19.14648438 20.20117188 C19.11133456 22.13441169 19.05753361 24.06729682 19 26 C18.67 26 18.34 26 18 26 C18 24.35 18 22.7 18 21 C17.34 21 16.68 21 16 21 C15.67 19.68 15.34 18.36 15 17 C14.34 17 13.68 17 13 17 C13 16.34 13 15.68 13 15 C12.34 15 11.68 15 11 15 C11 14.34 11 13.68 11 13 C10.34 12.67 9.68 12.34 9 12 C8.34657606 10.541923 7.74983453 9.05807055 7.1875 7.5625 C5.62574235 3.75509506 5.62574235 3.75509506 2.25 1.4375 C1.5075 1.293125 0.765 1.14875 0 1 C0 0.67 0 0.34 0 0 Z " fill="#656360" transform="translate(130,38)"/>
<path d="M0 0 C3.625 0.375 3.625 0.375 7 1 C7 1.66 7 2.32 7 3 C7.763125 3.144375 8.52625 3.28875 9.3125 3.4375 C12 4 12 4 15 5 C15 5.66 15 6.32 15 7 C15.99 7 16.98 7 18 7 C18 7.66 18 8.32 18 9 C20.71732519 9.90577506 23.44326671 10.74279395 26.1875 11.5625 C27.08855469 11.83191406 27.98960938 12.10132812 28.91796875 12.37890625 C29.60503906 12.58386719 30.29210937 12.78882812 31 13 C31 14.65 31 16.3 31 18 C29.68 18 28.36 18 27 18 C27 17.34 27 16.68 27 16 C24.50935112 15.31292445 22.62113708 15 20 15 C19.67 14.67 19.34 14.34 19 14 C14.69298455 10.82101241 11.12241324 9.22937918 6 8 C6 7.01 6 6.02 6 5 C2.28400809 4.79913557 1.22791555 4.8480563 -2 7 C-2.125 4.625 -2.125 4.625 -2 2 C-1.34 1.34 -0.68 0.68 0 0 Z " fill="#2C2A29" transform="translate(83,74)"/>
<path d="M0 0 C1.08777224 3.50001761 1.08642319 6.67744638 1.02172852 10.32910156 C1.00163223 11.61012756 0.98153595 12.89115356 0.96083069 14.21099854 C0.93363637 15.60420958 0.90632549 16.99741836 0.87890625 18.390625 C0.85459291 19.81979606 0.83074996 21.24897519 0.80735779 22.67816162 C0.74463756 26.43307721 0.67553705 30.1878492 0.60510254 33.94262695 C0.53430989 37.77678916 0.46955842 41.61105287 0.40429688 45.4453125 C0.27544009 52.96365397 0.13984206 60.48185398 0 68 C-1.32 68 -2.64 68 -4 68 C-3.9278125 66.83726562 -3.855625 65.67453125 -3.78125 64.4765625 C-3.30161711 56.35192393 -2.92841927 48.26501373 -3 40.125 C-3.04637167 33.40709175 -2.91067901 26.71226649 -2.625 20 C-2.5940625 19.15195801 -2.563125 18.30391602 -2.53125 17.43017578 C-2.25119946 11.47326733 -1.31577726 5.81353994 0 0 Z " fill="#062868" transform="translate(80,79)"/>
<path d="M0 0 C1.79887229 0.90244429 3.58890815 1.82251786 5.375 2.75 C6.87160156 3.51570313 6.87160156 3.51570313 8.3984375 4.296875 C11.12353032 6.0808697 11.76737167 7.09099714 13 10 C15.05000871 10.80528889 15.05000871 10.80528889 17 11 C17.8125 13.125 17.8125 13.125 18 16 C16.55576519 18.30107561 14.89127865 20.01646386 13 22 C10.76214433 19.94495507 9.43222388 18.13726395 8.1875 15.375 C6.22690394 11.25545964 3.7942708 7.60869168 1.171875 3.8828125 C0 2 0 2 0 0 Z " fill="#0856BC" transform="translate(119,86)"/>
<path d="M0 0 C6.08722746 -0.04934154 12.1743392 -0.08569167 18.26171875 -0.10986328 C20.33367947 -0.11993712 22.40562593 -0.13359666 24.47753906 -0.15087891 C27.45120764 -0.17506664 30.4246887 -0.18646908 33.3984375 -0.1953125 C34.32868744 -0.20563507 35.25893738 -0.21595764 36.21737671 -0.22659302 C37.07811798 -0.22674408 37.93885925 -0.22689514 38.82568359 -0.22705078 C39.58513275 -0.231492 40.34458191 -0.23593323 41.12704468 -0.24050903 C43 0 43 0 45 2 C45 3.32 45 4.64 45 6 C41.72814447 7.07310858 39.57052408 6.89263102 36.25 6.0625 C35.45078125 5.86785156 34.6515625 5.67320313 33.828125 5.47265625 C33.22484375 5.31667969 32.6215625 5.16070312 32 5 C31.67 5.66 31.34 6.32 31 7 C30.43796875 6.65066406 29.8759375 6.30132812 29.296875 5.94140625 C19.92575361 0.86777765 10.40135146 1.11206157 0 1 C0 0.67 0 0.34 0 0 Z " fill="#514E4A" transform="translate(75,38)"/>
<path d="M0 0 C5.88986463 -0.07425639 11.77945566 -0.12865268 17.66967773 -0.16479492 C19.67265572 -0.17986465 21.6756008 -0.2003241 23.6784668 -0.22631836 C26.56046681 -0.26278127 29.44202984 -0.27974461 32.32421875 -0.29296875 C33.21711105 -0.30845261 34.11000336 -0.32393646 35.029953 -0.33988953 C39.85930073 -0.34119149 43.08214038 -0.15075289 47 3 C48.8359375 5.15625 48.8359375 5.15625 50.375 7.5 C51.16003906 8.66015625 51.16003906 8.66015625 51.9609375 9.84375 C53 12 53 12 52 15 C51.46375 13.906875 50.9275 12.81375 50.375 11.6875 C48.2142139 7.91373273 46.11583269 6.56401642 42 5 C41.12005371 4.65404785 40.24010742 4.3080957 39.33349609 3.95166016 C35.37535727 2.82167443 31.62186629 2.64827993 27.5390625 2.5859375 C26.3532106 2.55688828 26.3532106 2.55688828 25.1434021 2.5272522 C22.63737517 2.46783947 20.13130135 2.42122573 17.625 2.375 C15.91794957 2.33678487 14.21091769 2.29773111 12.50390625 2.2578125 C8.33608956 2.16216989 4.1681827 2.07799885 0 2 C0 1.34 0 0.68 0 0 Z " fill="#071637" transform="translate(60,42)"/>
<path d="M0 0 C2.86724686 0.57344937 3.8614515 0.8614515 6 3 C7.32 3.33 8.64 3.66 10 4 C10 9.61 10 15.22 10 21 C9.01 20.67 8.02 20.34 7 20 C7 18.35 7 16.7 7 15 C6.34 14.67 5.68 14.34 5 14 C5 13.01 5 12.02 5 11 C2.03 10.505 2.03 10.505 -1 10 C-2.46726798 6.18510326 -1.43336419 3.70988378 0 0 Z " fill="#31302F" transform="translate(140,97)"/>
<path d="M0 0 C16.29056047 4.50589971 16.29056047 4.50589971 21 8 C21 8.66 21 9.32 21 10 C21.99 10.33 22.98 10.66 24 11 C24 11.66 24 12.32 24 13 C24.66 13 25.32 13 26 13 C34.24760416 23.08538552 35.20528373 33.38645526 35 46 C34.67 46 34.34 46 34 46 C33.84144531 44.91203125 33.68289062 43.8240625 33.51953125 42.703125 C32.13997183 33.80902424 30.72662514 24.83928071 26 17 C25.01 16.67 24.02 16.34 23 16 C21.65668346 14.00669158 20.32405988 12.00615134 19 10 C15.87595677 6.76025146 12.44855852 6.37286165 8.19140625 5.53125 C5.39094577 4.85235049 3.29841425 3.72381069 1 2 C0.67 1.34 0.34 0.68 0 0 Z " fill="#093377" transform="translate(107,44)"/>
<path d="M0 0 C0.99 0.33 1.98 0.66 3 1 C3.75 2.9375 3.75 2.9375 4 5 C3.67 5.66 3.34 6.32 3 7 C3.66 7.33 4.32 7.66 5 8 C6.26229508 12.47540984 6.26229508 12.47540984 5 15 C5.66 15.33 6.32 15.66 7 16 C7 16.99 7 17.98 7 19 C0.375 19.25 0.375 19.25 -3 17 C-3.6875 14.875 -3.6875 14.875 -4 13 C-2.68 12.34 -1.36 11.68 0 11 C0.08083491 7.44326383 -0.11026172 4.43184765 -1 1 C-0.67 0.67 -0.34 0.34 0 0 Z " fill="#0584F0" transform="translate(115,89)"/>
<path d="M0 0 C1.19947266 -0.020625 2.39894531 -0.04125 3.63476562 -0.0625 C10.99578041 -0.09462663 17.16751079 0.66321364 24.0625 3.25 C25.0525 3.58 26.0425 3.91 27.0625 4.25 C27.0625 4.91 27.0625 5.57 27.0625 6.25 C22.6075 5.26 22.6075 5.26 18.0625 4.25 C17.7325 4.91 17.4025 5.57 17.0625 6.25 C16.4025 5.59 15.7425 4.93 15.0625 4.25 C14.0725 4.745 14.0725 4.745 13.0625 5.25 C13.0625 4.59 13.0625 3.93 13.0625 3.25 C11.391875 3.5284375 11.391875 3.5284375 9.6875 3.8125 C6.0625 4.25 6.0625 4.25 4.0625 3.25 C0.88926687 3.22426114 -2.26825891 3.27794706 -5.43945312 3.37695312 C-9.19391251 3.43946616 -10.7250326 3.39164494 -13.9375 1.25 C-11.2780261 -1.4094739 -3.5725391 0.01492445 0 0 Z " fill="#076FDC" transform="translate(74.9375,48.75)"/>
<path d="M0 0 C4.07095734 -0.07513835 8.14163647 -0.12905913 12.21313477 -0.16479492 C13.59308926 -0.17971942 14.97299772 -0.20006661 16.3527832 -0.22631836 C37.58934575 -0.61973089 37.58934575 -0.61973089 45 6 C45 6.66 45 7.32 45 8 C40.8478438 7.38938879 37.73235883 5.86617941 34 4 C30.02218337 2.96591374 26.26743647 2.88428442 22.16796875 2.90234375 C20.87568359 2.90556641 19.58339844 2.90878906 18.25195312 2.91210938 C16.89713474 2.92046335 15.54231703 2.92892828 14.1875 2.9375 C12.81315265 2.94252 11.43880355 2.94708203 10.06445312 2.95117188 C6.70959076 2.96294332 3.35481779 2.97938717 0 3 C0 2.01 0 1.02 0 0 Z " fill="#085CC4" transform="translate(60,47)"/>
<path d="M0 0 C11.73382268 -0.09874398 23.46239511 -0.14540373 35.1875 0.375 C36.00508789 0.40585693 36.82267578 0.43671387 37.66503906 0.46850586 C41.83916419 0.68020495 45.18400186 1.11876645 49 3 C49 3.33 49 3.66 49 4 C44.72922344 4.05794812 40.45854764 4.09357874 36.1875 4.125 C34.97255859 4.14175781 33.75761719 4.15851562 32.50585938 4.17578125 C31.34248047 4.18222656 30.17910156 4.18867187 28.98046875 4.1953125 C27.37014771 4.21102295 27.37014771 4.21102295 25.72729492 4.22705078 C23 4 23 4 20 2 C17.77868577 1.6349209 17.77868577 1.6349209 15.33203125 1.5859375 C14.43935547 1.54726563 13.54667969 1.50859375 12.62695312 1.46875 C11.69818359 1.4378125 10.76941406 1.406875 9.8125 1.375 C8.87212891 1.33632813 7.93175781 1.29765625 6.96289062 1.2578125 C4.6421229 1.16356813 2.32136252 1.07795975 0 1 C0 0.67 0 0.34 0 0 Z " fill="#383633" transform="translate(51,38)"/>
<path d="M0 0 C0.33 0.66 0.66 1.32 1 2 C0.401875 3.175625 -0.19625 4.35125 -0.8125 5.5625 C-5.18743734 14.93304053 -5.34019092 26.62166892 -4.97265625 36.80078125 C-5.00033893 39.02725949 -5.37158653 40.87118847 -6 43 C-6.66 42.67 -7.32 42.34 -8 42 C-8.17668214 37.58385263 -8.28164862 33.16863222 -8.375 28.75 C-8.45041016 26.89761719 -8.45041016 26.89761719 -8.52734375 25.0078125 C-8.66965917 15.99450274 -6.92774166 9.58881875 -2 2 C-1.34 1.34 -0.68 0.68 0 0 Z " fill="#0751B9" transform="translate(80,77)"/>
<path d="M0 0 C4.9255044 -0.07491408 9.85066732 -0.12895771 14.77661133 -0.16479492 C16.44756864 -0.17975584 18.11848755 -0.20013204 19.78930664 -0.22631836 C38.9036017 -0.51809599 38.9036017 -0.51809599 47 3 C47.66 3.66 48.32 4.32 49 5 C45.79356237 5.15268751 43.36495108 5.13429398 40.33154297 4.01806641 C36.24548781 2.76943311 32.56673666 2.64895615 28.3203125 2.5859375 C27.50754852 2.56657135 26.69478455 2.5472052 25.85739136 2.5272522 C23.28003188 2.46782117 20.70262685 2.42121819 18.125 2.375 C16.36977298 2.33678657 14.61456403 2.29773291 12.859375 2.2578125 C8.57306476 2.16215001 4.28666681 2.07798551 0 2 C0 1.34 0 0.68 0 0 Z " fill="#0B4199" transform="translate(59,61)"/>
<path d="M0 0 C1.11761719 0.7734375 1.11761719 0.7734375 2.2578125 1.5625 C2.79148438 2.036875 3.32515625 2.51125 3.875 3 C3.875 3.66 3.875 4.32 3.875 5 C0.95683498 4.5330936 -0.73313907 3.63034684 -3.3125 2.0625 C-12.60499698 -3.2969778 -23.79748295 -2.42456965 -34.1875 -2.625 C-35.8327014 -2.66324919 -37.47788426 -2.70230477 -39.12304688 -2.7421875 C-43.12354457 -2.83743071 -47.12413565 -2.92173259 -51.125 -3 C-51.125 -3.33 -51.125 -3.66 -51.125 -4 C-46.18159001 -4.19411497 -41.23793818 -4.37251662 -36.29345703 -4.53710938 C-34.61557247 -4.59508964 -32.93782407 -4.65717485 -31.26025391 -4.72363281 C-7.87199149 -5.64300465 -7.87199149 -5.64300465 0 0 Z " fill="#07204F" transform="translate(111.125,64)"/>
<path d="M0 0 C5.94 0 11.88 0 18 0 C18 0.66 18 1.32 18 2 C12.14609943 5.21964531 6.73292338 7 0 7 C0 9.64 0 12.28 0 15 C-0.33 15 -0.66 15 -1 15 C-1.02715383 13.25008666 -1.04646551 11.50005055 -1.0625 9.75 C-1.07410156 8.77546875 -1.08570312 7.8009375 -1.09765625 6.796875 C-1 4 -1 4 0 0 Z " fill="#0C3A8B" transform="translate(82,104)"/>
<path d="M0 0 C5.01707535 -0.04961356 10.03400635 -0.08582043 15.05126953 -0.10986328 C16.75637298 -0.1198914 18.46145936 -0.13351726 20.16650391 -0.15087891 C22.62406642 -0.17526803 25.08140061 -0.18651512 27.5390625 -0.1953125 C28.67379501 -0.21079636 28.67379501 -0.21079636 29.83145142 -0.22659302 C36.85226328 -0.22806544 43.43575727 1.60792008 49 6 C50.8125 9.1875 50.8125 9.1875 52 12 C52.66 12.33 53.32 12.66 54 13 C53.67 14.32 53.34 15.64 53 17 C52.443125 16.278125 51.88625 15.55625 51.3125 14.8125 C49.0270024 11.92913577 49.0270024 11.92913577 46.25 9.3125 C44 7 44 7 44 5 C42.68 4.67 41.36 4.34 40 4 C40 3.34 40 2.68 40 2 C20.2 1.505 20.2 1.505 0 1 C0 0.67 0 0.34 0 0 Z " fill="#0A2E70" transform="translate(60,44)"/>
<path d="M0 0 C1.010625 0.03158203 2.02125 0.06316406 3.0625 0.09570312 C4.5165625 0.16241211 4.5165625 0.16241211 6 0.23046875 C7.3303125 0.28883911 7.3303125 0.28883911 8.6875 0.34838867 C11 0.8125 11 0.8125 14 3.8125 C9.38 3.8125 4.76 3.8125 0 3.8125 C-0.33 9.0925 -0.66 14.3725 -1 19.8125 C-1.33 19.8125 -1.66 19.8125 -2 19.8125 C-3.0024305 14.46620398 -2.84888195 10.18875234 -2 4.8125 C-3.65 4.8125 -5.3 4.8125 -7 4.8125 C-7 4.1525 -7 3.4925 -7 2.8125 C-9.31 2.4825 -11.62 2.1525 -14 1.8125 C-9.4858853 -1.1969098 -5.28375583 -0.26620964 0 0 Z " fill="#2C2A26" transform="translate(60,38.1875)"/>
<path d="M0 0 C1.89453125 0.68359375 1.89453125 0.68359375 4 2 C5.01171875 4.34765625 5.01171875 4.34765625 5.6875 7.0625 C6.31535105 10.31590139 6.31535105 10.31590139 8 13 C8.07179964 14.51928038 8.08392007 16.04167482 8.0625 17.5625 C8.05347656 18.38878906 8.04445312 19.21507813 8.03515625 20.06640625 C8.02355469 20.70449219 8.01195312 21.34257813 8 22 C1.25 21.25 1.25 21.25 -1 19 C0.375 17.5 0.375 17.5 2 16 C2.66 16 3.32 16 4 16 C3.67 14.741875 3.34 13.48375 3 12.1875 C2.32396773 9.61012698 2 7.69787075 2 5 C1.34 4.67 0.68 4.34 0 4 C0 2.68 0 1.36 0 0 Z " fill="#0C5FC0" transform="translate(133,72)"/>
<path d="M0 0 C1.67542976 0.28604898 3.34385343 0.61781233 5 1 C5 1.66 5 2.32 5 3 C6.32 3.33 7.64 3.66 9 4 C9 4.66 9 5.32 9 6 C9.99 6.33 10.98 6.66 12 7 C17 12.46511628 17 12.46511628 17 15 C17.99 15.33 18.98 15.66 20 16 C20.6875 18.0625 20.6875 18.0625 21 20 C20.01 20 19.02 20 18 20 C17.34 18.68 16.68 17.36 16 16 C15.34 16 14.68 16 14 16 C13.443125 15.113125 12.88625 14.22625 12.3125 13.3125 C9.87102365 9.43377719 6.85832798 7.42931762 3 5 C2.34 5 1.68 5 1 5 C1 6.65 1 8.3 1 10 C-0.85064319 6.87703962 -1.29356154 4.62059232 -1 1 C-0.67 0.67 -0.34 0.34 0 0 Z " fill="#0864C4" transform="translate(114,51)"/>
<path d="M0 0 C2.12472576 -0.05386629 4.24983652 -0.09273071 6.375 -0.125 C7.55835937 -0.14820312 8.74171875 -0.17140625 9.9609375 -0.1953125 C13 0 13 0 15 2 C12.65408148 4.7710688 10.85223799 5.52059284 7.3125 6.1875 C6.50425781 6.34605469 5.69601563 6.50460938 4.86328125 6.66796875 C4.24839844 6.77753906 3.63351563 6.88710937 3 7 C3.99 7.66 4.98 8.32 6 9 C4.02 9 2.04 9 0 9 C0 6.03 0 3.06 0 0 Z " fill="#0379F0" transform="translate(60,75)"/>
<path d="M0 0 C4.73224376 -0.04963625 9.46433415 -0.08583097 14.19677734 -0.10986328 C15.80487713 -0.11988763 17.41295885 -0.13351066 19.02099609 -0.15087891 C21.33956376 -0.17528488 23.65788929 -0.18651886 25.9765625 -0.1953125 C26.68930328 -0.20563507 27.40204407 -0.21595764 28.13638306 -0.22659302 C32.47509083 -0.2275565 35.96715817 0.40562067 40 2 C40 2.33 40 2.66 40 3 C36.37 3.66 32.74 4.32 29 5 C29 4.34 29 3.68 29 3 C20.90075978 2.28954033 13.26315771 1.7649123 5.171875 2.84375 C3 3 3 3 0 2 C0 1.34 0 0.68 0 0 Z " fill="#0968D6" transform="translate(60,65)"/>
<path d="M0 0 C12.20295983 14.54968288 12.20295983 14.54968288 11.875 20.125 C10.73160273 22.575137 9.46882406 23.04432617 7 24 C7 22.33333333 7 20.66666667 7 19 C5.64495305 14.07255656 3.40945736 9.75883451 1.0234375 5.26953125 C0 3 0 3 0 0 Z " fill="#0666D5" transform="translate(119,88)"/>
<path d="M0 0 C0 3.25782013 -0.69565311 4.86413255 -2 7.8125 C-3.62461049 11.71957383 -4.45153775 14.7103914 -4 19 C-5.65 19.33 -7.3 19.66 -9 20 C-8.49202991 15.6822542 -7.80317221 11.96697886 -6 8 C-6.66 7.67 -7.32 7.34 -8 7 C-6.5361389 2.60841671 -4.02168662 2.12052567 0 0 Z " fill="#0664D7" transform="translate(77,79)"/>
<path d="M0 0 C4.83766699 0.41465717 6.85646376 2.4198615 10 6 C11.65497356 9.30994713 11.10084335 12.99123 11.0625 16.625 C11.05798828 17.42679688 11.05347656 18.22859375 11.04882812 19.0546875 C11.03703168 21.03649006 11.01909605 23.01825433 11 25 C10.67 25 10.34 25 10 25 C9.96261719 24.26394531 9.92523438 23.52789062 9.88671875 22.76953125 C9.40243901 15.58130053 8.49858967 10.97491446 3 6 C3.33 5.01 3.66 4.02 4 3 C2.68 2.01 1.36 1.02 0 0 Z " fill="#73716F" transform="translate(138,39)"/>
<path d="M0 0 C4.41665288 -0.02902168 8.83328123 -0.04680608 13.25 -0.0625 C15.13138672 -0.07506836 15.13138672 -0.07506836 17.05078125 -0.08789062 C18.85869141 -0.09272461 18.85869141 -0.09272461 20.703125 -0.09765625 C22.36843262 -0.10551147 22.36843262 -0.10551147 24.06738281 -0.11352539 C26.59077606 -0.01584159 28.63878251 0.12438761 31 1 C31.33 1.66 31.66 2.32 32 3 C32.99 3.66 33.98 4.32 35 5 C34.01 5 33.02 5 32 5 C31.67 5.66 31.34 6.32 31 7 C30.43796875 6.65066406 29.8759375 6.30132812 29.296875 5.94140625 C19.92575361 0.86777765 10.40135146 1.11206157 0 1 C0 0.67 0 0.34 0 0 Z " fill="#484543" transform="translate(75,38)"/>
<path d="M0 0 C0.33 0 0.66 0 1 0 C1 6.93 1 13.86 1 21 C-0.32 21 -1.64 21 -3 21 C-2.89037184 17.8742604 -2.75968759 14.74975219 -2.625 11.625 C-2.5940625 10.73554688 -2.563125 9.84609375 -2.53125 8.9296875 C-2.49257812 8.07890625 -2.45390625 7.228125 -2.4140625 6.3515625 C-2.3826416 5.56604004 -2.3512207 4.78051758 -2.31884766 3.97119141 C-2 2 -2 2 0 0 Z " fill="#05215B" transform="translate(79,126)"/>
<path d="M0 0 C4.87664009 -0.34833144 7.77050005 0.58314288 12 3 C10.68 4.65 9.36 6.3 8 8 C4 6 4 6 2.15625 4.96875 C-0.22093977 3.90073721 -2.16200114 3.60335284 -4.75 3.375 C-5.54921875 3.30023438 -6.3484375 3.22546875 -7.171875 3.1484375 C-7.77515625 3.09945312 -8.3784375 3.05046875 -9 3 C-9 2.67 -9 2.34 -9 2 C-4.545 1.505 -4.545 1.505 0 1 C0 0.67 0 0.34 0 0 Z " fill="#084EB4" transform="translate(103,66)"/>
<path d="M0 0 C1.66933058 0.6599679 3.33514285 1.32882722 5 2 C5.89235352 2.35868164 5.89235352 2.35868164 6.80273438 2.72460938 C8.7967602 3.54117202 10.77307133 4.39295 12.75 5.25 C13.43449219 5.52457031 14.11898437 5.79914063 14.82421875 6.08203125 C16.796875 6.953125 16.796875 6.953125 20 9 C20.953125 12.234375 20.953125 12.234375 21 15 C20.01 15.66 19.02 16.32 18 17 C17.731875 16.195625 17.46375 15.39125 17.1875 14.5625 C16.795625 13.716875 16.40375 12.87125 16 12 C15.01 11.67 14.02 11.34 13 11 C12.46375 10.443125 11.9275 9.88625 11.375 9.3125 C8.4612467 6.47542442 5.24923752 4.449111 1.828125 2.26953125 C1.22484375 1.85058594 0.6215625 1.43164062 0 1 C0 0.67 0 0.34 0 0 Z " fill="#131C2F" transform="translate(119,85)"/>
<path d="M0 0 C1.98 0.66 3.96 1.32 6 2 C6 2.66 6 3.32 6 4 C6.556875 4.20625 7.11375 4.4125 7.6875 4.625 C10.85840149 6.51040088 12.68729479 9.15359359 15 12 C15.99 12.66 16.98 13.32 18 14 C18 14.99 18 15.98 18 17 C14.0873016 15.6957672 11.62689759 14.21065261 9 11 C9 10.01 9 9.02 9 8 C8.13375 7.566875 8.13375 7.566875 7.25 7.125 C6.5075 6.75375 5.765 6.3825 5 6 C4.278125 5.71125 3.55625 5.4225 2.8125 5.125 C1 4 1 4 0.25 1.875 C0.1675 1.25625 0.085 0.6375 0 0 Z " fill="#0674D9" transform="translate(114,54)"/>
<path d="M0 0 C0.33 0 0.66 0 1 0 C1 15.18 1 30.36 1 46 C0.67 46 0.34 46 0 46 C-0.16811728 43.25008168 -0.3345481 40.50007888 -0.5 37.75 C-0.54769531 36.97269531 -0.59539063 36.19539063 -0.64453125 35.39453125 C-0.71220703 34.26337891 -0.71220703 34.26337891 -0.78125 33.109375 C-0.82314453 32.41811523 -0.86503906 31.72685547 -0.90820312 31.01464844 C-0.99947098 29.01161035 -1 27.0051163 -1 25 C-1.99 24.34 -2.98 23.68 -4 23 C-3.51917969 22.54109375 -3.03835937 22.0821875 -2.54296875 21.609375 C-0.20598469 17.65720955 -0.42921637 13.76525629 -0.3125 9.25 C-0.27833984 8.36183594 -0.24417969 7.47367187 -0.20898438 6.55859375 C-0.12671286 4.37252197 -0.05749828 2.18684049 0 0 Z " fill="#1C1604" transform="translate(58,66)"/>
<path d="M0 0 C1.83203125 0.1640625 1.83203125 0.1640625 4 1 C8.38347219 8.06554278 9.82251873 15.80359249 10 24 C7.83324077 21.83324077 7.39864194 20.62174706 6.5 17.75 C6.2421875 16.94820312 5.984375 16.14640625 5.71875 15.3203125 C5.13199275 13.42610703 4.56334783 11.52629894 4 9.625 C3.19469488 6.97312293 3.19469488 6.97312293 1.375 5.375 C0.92125 4.92125 0.4675 4.4675 0 4 C0 2.68 0 1.36 0 0 Z " fill="#094AA2" transform="translate(130,60)"/>
<path d="M0 0 C0.66 0 1.32 0 2 0 C2.33 0.99 2.66 1.98 3 3 C6.13349732 4.04449911 6.98968256 3.93423645 10 3 C10.1875 5.375 10.1875 5.375 10 8 C9.01 8.66 8.02 9.32 7 10 C7.33 9.01 7.66 8.02 8 7 C7.01 6.67 6.02 6.34 5 6 C5.33 7.32 5.66 8.64 6 10 C-0.76923077 6.55384615 -0.76923077 6.55384615 -1.9375 3.75 C-1.958125 3.1725 -1.97875 2.595 -2 2 C-1.34 2 -0.68 2 0 2 C0 1.34 0 0.68 0 0 Z " fill="#090808" transform="translate(39,167)"/>
<path d="M0 0 C1.485 0.99 1.485 0.99 3 2 C3 2.66 3 3.32 3 4 C3.66 4 4.32 4 5 4 C5 4.66 5 5.32 5 6 C6.98 6 8.96 6 11 6 C10.67 6.66 10.34 7.32 10 8 C11.32 8.66 12.64 9.32 14 10 C9.38225105 10.18108819 6.22569972 9.81101416 2 8 C1.01 8.495 1.01 8.495 0 9 C0 6.03 0 3.06 0 0 Z " fill="#090E1A" transform="translate(81,93)"/>
<path d="M0 0 C0.33 0 0.66 0 1 0 C0.67 9.57 0.34 19.14 0 29 C-0.66 29 -1.32 29 -2 29 C-2.0580772 24.91672643 -2.09362249 20.83355917 -2.125 16.75 C-2.14175781 15.59113281 -2.15851563 14.43226562 -2.17578125 13.23828125 C-2.18222656 12.12324219 -2.18867187 11.00820312 -2.1953125 9.859375 C-2.20578613 8.83295898 -2.21625977 7.80654297 -2.22705078 6.74902344 C-1.99836111 3.98015712 -1.4243299 2.35581208 0 0 Z " fill="#08398E" transform="translate(78,84)"/>
<path d="M0 0 C3.43927579 1.2419607 6.25207819 2.55740284 9 5 C9 5.66 9 6.32 9 7 C10.32 7.33 11.64 7.66 13 8 C13.6875 10.3125 13.6875 10.3125 14 13 C12.5625 14.8125 12.5625 14.8125 11 16 C10.9175 14.88625 10.835 13.7725 10.75 12.625 C10.5025 11.42875 10.255 10.2325 10 9 C8.0998823 7.75825204 8.0998823 7.75825204 6 7 C5.33333333 5.66666667 4.66666667 4.33333333 4 3 C1.9664052 1.73195434 1.9664052 1.73195434 0 1 C0 0.67 0 0.34 0 0 Z " fill="#08337E" transform="translate(123,89)"/>
<path d="M0 0 C2.86724686 0.57344937 3.8614515 0.8614515 6 3 C8.06874034 3.6425235 8.06874034 3.6425235 10 4 C10 6.64 10 9.28 10 12 C9.34 12 8.68 12 8 12 C8 10.35 8 8.7 8 7 C3.545 6.01 3.545 6.01 -1 5 C-0.67 3.35 -0.34 1.7 0 0 Z " fill="#393633" transform="translate(140,97)"/>
<path d="M0 0 C-3 2 -3 2 -6 2 C-6 2.99 -6 3.98 -6 5 C-1.38 5 3.24 5 8 5 C8 5.33 8 5.66 8 6 C1.07 6 -5.86 6 -13 6 C-13 5.01 -13 4.02 -13 3 C-11.21189234 2.30329584 -9.41937948 1.61788811 -7.625 0.9375 C-6.62726563 0.55464844 -5.62953125 0.17179687 -4.6015625 -0.22265625 C-2 -1 -2 -1 0 0 Z " fill="#1266CD" transform="translate(95,115)"/>
<path d="M0 0 C0 0.66 0 1.32 0 2 C-6.31410731 7.80733514 -12.5529265 10.21310532 -21 11 C-21 10.34 -21 9.68 -21 9 C-20.24074219 8.79503906 -19.48148437 8.59007813 -18.69921875 8.37890625 C-17.70535156 8.10949219 -16.71148437 7.84007813 -15.6875 7.5625 C-14.70136719 7.29566406 -13.71523437 7.02882813 -12.69921875 6.75390625 C-10.78482474 6.21920575 -8.88566385 5.62855462 -7 5 C-6.67 4.01 -6.34 3.02 -6 2 C-3.85412616 0.684787 -2.52986895 0 0 0 Z " fill="#0950B5" transform="translate(107,101)"/>
<path d="M0 0 C7.57825341 -0.76490782 12.20721424 -0.01088145 18.41796875 4.4921875 C18.94003906 4.98976563 19.46210937 5.48734375 20 6 C20 6.66 20 7.32 20 8 C17.08183498 7.5330936 15.39186093 6.63034684 12.8125 5.0625 C8.76407771 2.64224754 4.608718 1.79424619 0 1 C0 0.67 0 0.34 0 0 Z " fill="#09265C" transform="translate(95,61)"/>
<path d="M0 0 C2.62901288 1.52206009 4.84365964 2.84365964 7 5 C7 5.99 7 6.98 7 8 C7.66 8 8.32 8 9 8 C8.67 8.99 8.34 9.98 8 11 C4.7 9.35 1.4 7.7 -2 6 C-1.01 5.01 -0.02 4.02 1 3 C0.67 2.01 0.34 1.02 0 0 Z " fill="#1568C4" transform="translate(105,55)"/>
<path d="M0 0 C1.65 0 3.3 0 5 0 C5 0.66 5 1.32 5 2 C7.64 2.33 10.28 2.66 13 3 C13.33 3.99 13.66 4.98 14 6 C10.37 6.33 6.74 6.66 3 7 C2.67 6.01 2.34 5.02 2 4 C1.34870203 2.65909241 0.68486725 1.32407669 0 0 Z " fill="#171717" transform="translate(24,40)"/>
<path d="M0 0 C1.9375 0.6875 1.9375 0.6875 4 2 C5.73857695 6.63620519 5.08552435 12.10610661 5 17 C4.67 17 4.34 17 4 17 C3.71125 15.88625 3.4225 14.7725 3.125 13.625 C2.30758671 9.99708908 2.30758671 9.99708908 0 8 C-0.26991906 5.31160615 -0.08737357 2.70858064 0 0 Z " fill="#4A4845" transform="translate(144,77)"/>
<path d="M0 0 C1.27230469 0.47566406 1.27230469 0.47566406 2.5703125 0.9609375 C6.09477225 2.02871232 9.20670957 2.40041079 12.875 2.625 C14.60363281 2.73714844 14.60363281 2.73714844 16.3671875 2.8515625 C17.67042969 2.92503906 17.67042969 2.92503906 19 3 C19 3.33 19 3.66 19 4 C15.00204108 4.95619733 11.29196078 5.1039592 7.1875 5.0625 C6.02605469 5.05347656 4.86460938 5.04445313 3.66796875 5.03515625 C2.78753906 5.02355469 1.90710938 5.01195313 1 5 C0.67 3.35 0.34 1.7 0 0 Z " fill="#061B46" transform="translate(82,100)"/>
<path d="M0 0 C3.39135719 1.4310782 5.23764957 3.17065183 7.5625 6 C9.67356316 8.55772463 11.19970251 10.133135 14 12 C14.70052461 14.663063 14.77744818 17.24035737 15 20 C13.50912243 18.01363789 12.01962043 16.02631754 10.53515625 14.03515625 C6.0401793 7.13179591 6.0401793 7.13179591 0 2 C0 1.34 0 0.68 0 0 Z " fill="#0944A1" transform="translate(119,86)"/>
<path d="M0 0 C-0.66 0.66 -1.32 1.32 -2 2 C-0.68 2.33 0.64 2.66 2 3 C2 3.66 2 4.32 2 5 C-0.31 5 -2.62 5 -5 5 C-5 4.34 -5 3.68 -5 3 C-6.98 3 -8.96 3 -11 3 C-7.48550811 -0.37391222 -4.73940561 -0.27342725 0 0 Z " fill="#171715" transform="translate(56,80)"/>
<path d="M0 0 C2.97 0.495 2.97 0.495 6 1 C5.25 5.75 5.25 5.75 3 8 C2.01 7.67 1.02 7.34 0 7 C0 4.69 0 2.38 0 0 Z " fill="#171614" transform="translate(38,65)"/>
<path d="M0 0 C0.66 0 1.32 0 2 0 C2.18451025 11.52164009 2.18451025 11.52164009 1 17 C0.01 16.67 -0.98 16.34 -2 16 C-1.855625 15.030625 -1.71125 14.06125 -1.5625 13.0625 C-0.93952558 8.71947831 -0.46492141 4.36234766 0 0 Z " fill="#0655C9" transform="translate(71,129)"/>
<path d="M0 0 C2.97 0.99 5.94 1.98 9 3 C8.625 5.4375 8.625 5.4375 8 8 C7.01 8.495 7.01 8.495 6 9 C5.731875 8.195625 5.46375 7.39125 5.1875 6.5625 C4.795625 5.716875 4.40375 4.87125 4 4 C3.01 3.67 2.02 3.34 1 3 C0.67 2.01 0.34 1.02 0 0 Z " fill="#061538" transform="translate(131,93)"/>
<path d="M0 0 C1.67542976 0.28604898 3.34385343 0.61781233 5 1 C5 2.65 5 4.3 5 6 C3.68 5.67 2.36 5.34 1 5 C1 6.65 1 8.3 1 10 C-0.85064319 6.87703962 -1.29356154 4.62059232 -1 1 C-0.67 0.67 -0.34 0.34 0 0 Z " fill="#1367BC" transform="translate(114,51)"/>
<path d="M0 0 C1.43791516 0.14168137 2.8753237 0.28851043 4.3125 0.4375 C5.11300781 0.51871094 5.91351563 0.59992187 6.73828125 0.68359375 C9 1 9 1 12 2 C12 2.99 12 3.98 12 5 C7.61110675 4.33501617 4.0188515 2.81242323 0 1 C0 0.67 0 0.34 0 0 Z " fill="#061941" transform="translate(107,43)"/>
<path d="M0 0 C1.75 2.625 1.75 2.625 3 5 C-1 3 -1 3 -2.84375 1.96875 C-5.22093977 0.90073721 -7.16200114 0.60335284 -9.75 0.375 C-10.54921875 0.30023438 -11.3484375 0.22546875 -12.171875 0.1484375 C-12.77515625 0.09945312 -13.3784375 0.05046875 -14 0 C-14 -0.33 -14 -0.66 -14 -1 C-12.41870971 -1.22331199 -10.83478911 -1.42804644 -9.25 -1.625 C-8.36828125 -1.74101563 -7.4865625 -1.85703125 -6.578125 -1.9765625 C-3.71491215 -2.00259171 -2.36510539 -1.57673693 0 0 Z " fill="#3869A6" transform="translate(108,69)"/>
<path d="M0 0 C1.93166016 0.01740234 1.93166016 0.01740234 3.90234375 0.03515625 C5.19269531 0.04417969 6.48304687 0.05320313 7.8125 0.0625 C8.81152344 0.07410156 9.81054688 0.08570313 10.83984375 0.09765625 C7.89718286 2.05943018 6.71551902 2.46507972 3.33984375 2.84765625 C2.1796875 2.99460938 2.1796875 2.99460938 0.99609375 3.14453125 C-1.16015625 3.09765625 -1.16015625 3.09765625 -4.16015625 1.09765625 C-3.16015625 0.09765625 -3.16015625 0.09765625 0 0 Z " fill="#096BD9" transform="translate(65.16015625,48.90234375)"/>
<path d="M0 0 C4.68520915 1.21815438 8.70543612 2.69559987 13 5 C13 5.33 13 5.66 13 6 C8.24967963 5.53428232 4.87839357 4.85175998 1 2 C0.67 1.34 0.34 0.68 0 0 Z " fill="#0B367D" transform="translate(107,44)"/>
<path d="M0 0 C0 3 0 3 -1 5 C-3.61941217 6.74627478 -5.03824877 7.38722388 -8 8 C-7.9375 6.25 -7.9375 6.25 -7 4 C-4.75835678 2.40498463 -2.46433357 1.25456982 0 0 Z " fill="#076DE0" transform="translate(77,79)"/>
<path d="M0 0 C1.75091019 0.08754551 3.50079551 0.19573373 5.25 0.3125 C6.22453125 0.37050781 7.1990625 0.42851563 8.203125 0.48828125 C11.25341611 1.04636524 12.70711276 1.96369776 15 4 C9.46342706 4.42589023 5.10334017 2.905247 0 1 C0 0.67 0 0.34 0 0 Z " fill="#083F9C" transform="translate(93,62)"/>
<path d="M0 0 C3.3 1.65 6.6 3.3 10 5 C8.35 6.32 6.7 7.64 5 9 C1.125 3.375 1.125 3.375 0 0 Z " fill="#31629B" transform="translate(107,45)"/>
<path d="M0 0 C0.99 0.66 1.98 1.32 3 2 C5.11280345 2.63292383 5.11280345 2.63292383 7 3 C7 3.33 7 3.66 7 4 C3.7 4.66 0.4 5.32 -3 6 C-1.125 1.125 -1.125 1.125 0 0 Z " fill="#141516" transform="translate(22,34)"/>
<path d="M0 0 C0.66 0 1.32 0 2 0 C2 2.97 2 5.94 2 9 C0.68 9 -0.64 9 -2 9 C-1.34 6.03 -0.68 3.06 0 0 Z " fill="#124A9E" transform="translate(139,85)"/>
<path d="M0 0 C3.0831351 1.19899698 6.06279492 2.47700477 9 4 C9 4.66 9 5.32 9 6 C9.99 6.33 10.98 6.66 12 7 C11.67 7.66 11.34 8.32 11 9 C9.16384919 7.69144447 7.33114211 6.37805538 5.5 5.0625 C4.4790625 4.33160156 3.458125 3.60070313 2.40625 2.84765625 C1.6121875 2.23792969 0.818125 1.62820312 0 1 C0 0.67 0 0.34 0 0 Z " fill="#08265D" transform="translate(119,48)"/>
<path d="M0 0 C4.51617599 -0.07654536 8.59085217 -0.10228696 13 1 C13 1.33 13 1.66 13 2 C4.57142857 3.28571429 4.57142857 3.28571429 0 2 C0 1.34 0 0.68 0 0 Z " fill="#2B292A" transform="translate(105,1)"/>
<path d="M0 0 C3.82352106 1.5577308 6.29205593 3.91595258 9 7 C9 7.99 9 8.98 9 10 C7.62437146 8.71034824 6.29233607 7.37310707 5 6 C5 5.34 5 4.68 5 4 C4.360625 3.896875 3.72125 3.79375 3.0625 3.6875 C2.381875 3.460625 1.70125 3.23375 1 3 C0.67 2.01 0.34 1.02 0 0 Z " fill="#0A418F" transform="translate(120,50)"/>
<path d="M0 0 C0 0.99 0 1.98 0 3 C-2.875 3.125 -2.875 3.125 -6 3 C-6.66 2.34 -7.32 1.68 -8 1 C-5.29120665 -0.35439668 -2.99066732 -0.06501451 0 0 Z " fill="#161615" transform="translate(161,160)"/>
<path d="M0 0 C1.98 0 3.96 0 6 0 C6.33 0.66 6.66 1.32 7 2 C4.625 3.0625 4.625 3.0625 2 4 C1.34 3.67 0.68 3.34 0 3 C0 2.01 0 1.02 0 0 Z " fill="#0659CD" transform="translate(82,111)"/>
<path d="M0 0 C2.92879371 0.62759865 5.36095629 1.58622659 8 3 C5.36 3 2.72 3 0 3 C-0.33 3.66 -0.66 4.32 -1 5 C-0.67 3.35 -0.34 1.7 0 0 Z " fill="#2B2A2A" transform="translate(150,45)"/>
<path d="M0 0 C0.66 0 1.32 0 2 0 C2 3.63 2 7.26 2 11 C1.67 11 1.34 11 1 11 C0.63890458 9.35567294 0.28629924 7.7094792 -0.0625 6.0625 C-0.25972656 5.14597656 -0.45695313 4.22945313 -0.66015625 3.28515625 C-0.77230469 2.53105469 -0.88445312 1.77695313 -1 1 C-0.67 0.67 -0.34 0.34 0 0 Z " fill="#282A28" transform="translate(148,120)"/>
<path d="M0 0 C1.485 0.99 1.485 0.99 3 2 C3 2.66 3 3.32 3 4 C3.66 4 4.32 4 5 4 C4.67 4.99 4.34 5.98 4 7 C2.68 6.67 1.36 6.34 0 6 C0 4.02 0 2.04 0 0 Z " fill="#12110F" transform="translate(81,93)"/>
<path d="M0 0 C0.33 0 0.66 0 1 0 C1 1.65 1 3.3 1 5 C0.34 5 -0.32 5 -1 5 C-1.33 5.99 -1.66 6.98 -2 8 C-2.66 7.67 -3.32 7.34 -4 7 C-3 4 -3 4 -1 2 C-0.67 1.34 -0.34 0.68 0 0 Z " fill="#076AD1" transform="translate(136,83)"/>
</svg>
